<svg
    width="26"
    height="25"
    viewBox="0 0 28 27"
    fill="none"
    xmlns="http://www.w3.org/2000/svg"
>
<path
        d="M17.8713 6.83138C19.3812 6.83138 20.6052 7.99731 20.6052 9.43555M26.073 9.43555C26.073 13.7503 22.401 17.248 17.8713 17.248C17.0427 17.248 16.2428 17.131 15.4888 16.9133L12.4034 19.8522H9.66953V22.4564H6.93561V25.0605H2.83473C2.07978 25.0605 1.46777 24.4776 1.46777 23.7585V20.3916C1.46777 20.0462 1.61179 19.715 1.86815 19.4708L10.0209 11.705C9.7924 10.9868 9.66953 10.2248 9.66953 9.43555C9.66953 5.12082 13.3416 1.62305 17.8713 1.62305C22.401 1.62305 26.073 5.12082 26.073 9.43555Z"
        stroke="white"
        stroke-width="2"
        stroke-linecap="round"
        stroke-linejoin="round"
    />
</svg>
