<?xml version="1.0" encoding="utf-8"?>
<svg viewBox="0 0 35 30" fill="none" xmlns="http://www.w3.org/2000/svg">
  <defs>
    <linearGradient id="paint0_linear_529_3550" x1="4.06577" y1="21.3256" x2="31.8705" y2="21.4471" gradientUnits="userSpaceOnUse">
      <stop stop-color="#EC6CA9" />
      <stop offset="1" stop-color="#7B61FF" />
    </linearGradient>
  </defs>
  <path d="M 7.738 28.047 C 6.708 27.893 5.681 27.724 4.661 27.528 L 4.659 27.527 C 2.098 27.043 0.532 25.157 0.527 22.576 C 0.523 20.83 0.524 19.082 0.525 17.335 C 0.526 16.461 0.527 15.587 0.527 14.713 C 0.527 13.962 0.534 13.205 0.541 12.446 C 0.557 10.696 0.612 9.03 0.542 7.275 C 0.771 4.267 3.321 2.211 5.341 1.748 C 5.177 1.585 12.368 0.77 14.936 0.634 C 17.504 0.498 19.855 0.52 22.33 0.815 M 22.33 0.815 C 24.963 1.128 27.585 1.506 30.196 1.951 M 22.33 0.815 L 30.196 1.951 M 30.196 1.951 C 32.703 2.376 34.276 4.306 34.281 6.862 C 34.286 12.106 34.286 17.349 34.281 22.587 L 34.281 22.588 C 34.281 25.168 32.688 27.069 30.152 27.527 C 25.688 28.334 21.224 28.971 16.712 28.911 L 16.711 28.911 C 13.709 28.873 10.733 28.492 7.738 28.047 M 24.595 14.735 L 13.691 8.178 L 12.942 7.747 L 12.942 8.611 L 12.942 20.854 L 12.942 21.719 L 13.691 21.288 C 14.981 20.546 16.261 19.81 17.541 19.075 C 19.711 17.828 24.595 14.735 24.595 14.735 Z" stroke="url(#paint0_linear_529_3550)" />
</svg>